# xmcd
#
# Track frame offsets:
#	150
#	12637
#	24787
#	38104
#	49698
#	66887
#	80556
#	96052
#	114587
#	129720
#	147904
#
# Disc length: 2225 seconds
#
# Revision: 1
# Processed by: cddbd v1.5.2PL0 Copyright (c) Steve Scherf et al.
# Submitted via: audiograbber 1.83.01
#
DISCID=9008af0b
DTITLE=Billy C Farlow - The Lost 70'S Tapes
DYEAR=1900
DGENRE=
TTITLE0=I Ain't Feelin
TTITLE1=Barnyard Romance
TTITLE2=If You Don't Wanna Boogie [don't waste my time]
TTITLE3=Everybody's Gotta Be Somewhere
TTITLE4=One Of Those Nights
TTITLE5=Stuck Out On The Highway
TTITLE6=If You Don't Want To Boogie [Live]
TTITLE7=Sweet Nothin's
TTITLE8=Steal Away
TTITLE9=Piney Woods Funky Woman
TTITLE10=Too Much Fun
EXTD=
EXTT0=
EXTT1=
EXTT2=
EXTT3=
EXTT4=
EXTT5=
EXTT6=
EXTT7=
EXTT8=
EXTT9=
EXTT10=
PLAYORDER=
